<svg aria-hidden="true" focusable="false" data-prefix="fas" data-icon="terminal" role="img" xmlns="http://www.w3.org/2000/svg" width="640" height="512"><rect id="backgroundrect" width="100%" height="100%" x="0" y="0" fill="none" stroke="none"/><g class="currentLayer" style=""><title>Layer 1</title><path fill="#ffffff" d="M257.981 272.971L63.638 467.314c-9.373 9.373-24.569 9.373-33.941 0L7.029 444.647c-9.357-9.357-9.375-24.522-.04-33.901L161.011 256 6.99 101.255c-9.335-9.379-9.317-24.544.04-33.901l22.667-22.667c9.373-9.373 24.569-9.373 33.941 0L257.981 239.03c9.373 9.372 9.373 24.568 0 33.941zM640 456v-32c0-13.255-10.745-24-24-24H312c-13.255 0-24 10.745-24 24v32c0 13.255 10.745 24 24 24h304c13.255 0 24-10.745 24-24z" id="svg_1" class="selected" fill-opacity="1"/></g></svg>