<?xml version="1.0" encoding="UTF-8"?>
<svg xmlns="http://www.w3.org/2000/svg" xmlns:xlink="http://www.w3.org/1999/xlink" width="240pt" height="240pt" viewBox="0 0 240 240" version="1.1">
<g id="surface1">
<path style="fill-rule:nonzero;fill:rgb(100%,100%,100%);fill-opacity:1;stroke-width:1;stroke-linecap:butt;stroke-linejoin:miter;stroke:rgb(56.862745%,56.862745%,56.862745%);stroke-opacity:1;stroke-miterlimit:4;" d="M 640 130.941667 L 640 96 C 640 78.333333 625.666667 64 608 64 L 32 64 C 14.333333 64 0 78.333333 0 96 L 0 130.941667 C 18.604167 137.55 32 155.133333 32 176 C 32 196.866667 18.604167 214.45 0 221.058333 L 0 320 L 640 320 L 640 221.058333 C 621.395833 214.45 608 196.866667 608 176 C 608 155.133333 621.395833 137.55 640 130.941667 Z M 224 256 L 160 256 L 160 128 L 224 128 Z M 352 256 L 288 256 L 288 128 L 352 128 Z M 480 256 L 416 256 L 416 128 L 480 128 Z M 0 448 L 64 448 L 64 421.333333 C 64 412.491667 71.15625 405.333333 80 405.333333 C 88.84375 405.333333 96 412.491667 96 421.333333 L 96 448 L 224 448 L 224 421.333333 C 224 412.491667 231.15625 405.333333 240 405.333333 C 248.84375 405.333333 256 412.491667 256 421.333333 L 256 448 L 384 448 L 384 421.333333 C 384 412.491667 391.15625 405.333333 400 405.333333 C 408.84375 405.333333 416 412.491667 416 421.333333 L 416 448 L 544 448 L 544 421.333333 C 544 412.491667 551.15625 405.333333 560 405.333333 C 568.84375 405.333333 576 412.491667 576 421.333333 L 576 448 L 640 448 L 640 352 L 0 352 Z M 0 448 " transform="matrix(0.375,0,0,0.46875,0,0)"/>
</g>
</svg>
